<svg width="130" height="137" viewBox="0 0 130 137" fill="none" xmlns="http://www.w3.org/2000/svg">
<path d="M3.35156 118.443H5.63672V117.271C5.63672 115.963 5.77344 114.986 6.04688 114.342C6.33008 113.697 6.84277 113.175 7.58496 112.774C8.33691 112.364 9.28418 112.159 10.4268 112.159C11.5986 112.159 12.7461 112.335 13.8691 112.687L13.3125 115.558C12.6582 115.401 12.0283 115.323 11.4229 115.323C10.8271 115.323 10.3975 115.465 10.1338 115.748C9.87988 116.021 9.75293 116.554 9.75293 117.345V118.443H12.8291V121.681H9.75293V134H5.63672V121.681H3.35156V118.443ZM18.2197 123.189L14.4844 122.516C14.9043 121.012 15.627 119.898 16.6523 119.176C17.6777 118.453 19.2012 118.092 21.2227 118.092C23.0586 118.092 24.4258 118.312 25.3242 118.751C26.2227 119.181 26.8525 119.732 27.2139 120.406C27.585 121.07 27.7705 122.296 27.7705 124.083L27.7266 128.888C27.7266 130.255 27.79 131.266 27.917 131.92C28.0537 132.564 28.3027 133.258 28.6641 134H24.5918C24.4844 133.727 24.3525 133.321 24.1963 132.784C24.1279 132.54 24.0791 132.379 24.0498 132.301C23.3467 132.984 22.5947 133.497 21.7939 133.839C20.9932 134.181 20.1387 134.352 19.2305 134.352C17.6289 134.352 16.3643 133.917 15.4365 133.048C14.5186 132.179 14.0596 131.08 14.0596 129.752C14.0596 128.873 14.2695 128.092 14.6895 127.408C15.1094 126.715 15.6953 126.188 16.4473 125.826C17.209 125.455 18.3027 125.133 19.7285 124.859C21.6523 124.498 22.9854 124.161 23.7275 123.849V123.438C23.7275 122.647 23.5322 122.086 23.1416 121.754C22.751 121.412 22.0137 121.241 20.9297 121.241C20.1973 121.241 19.626 121.388 19.2158 121.681C18.8057 121.964 18.4736 122.467 18.2197 123.189ZM23.7275 126.529C23.2002 126.705 22.3652 126.915 21.2227 127.159C20.0801 127.403 19.333 127.643 18.9814 127.877C18.4443 128.258 18.1758 128.741 18.1758 129.327C18.1758 129.903 18.3906 130.401 18.8203 130.821C19.25 131.241 19.7969 131.451 20.4609 131.451C21.2031 131.451 21.9111 131.207 22.585 130.719C23.083 130.348 23.4102 129.894 23.5664 129.356C23.6738 129.005 23.7275 128.336 23.7275 127.35V126.529ZM36.1201 134L29.8506 118.443H34.1719L37.1016 126.383L37.9512 129.034C38.1758 128.36 38.3174 127.916 38.376 127.701C38.5127 127.262 38.6592 126.822 38.8154 126.383L41.7744 118.443H46.0078L39.8262 134H36.1201ZM47.5898 126.002C47.5898 124.635 47.9268 123.312 48.6006 122.032C49.2744 120.753 50.2266 119.776 51.457 119.103C52.6973 118.429 54.0791 118.092 55.6025 118.092C57.9561 118.092 59.8848 118.858 61.3887 120.392C62.8926 121.915 63.6445 123.844 63.6445 126.178C63.6445 128.531 62.8828 130.484 61.3594 132.037C59.8457 133.58 57.9365 134.352 55.6318 134.352C54.2061 134.352 52.8438 134.029 51.5449 133.385C50.2559 132.74 49.2744 131.798 48.6006 130.558C47.9268 129.308 47.5898 127.789 47.5898 126.002ZM51.8086 126.222C51.8086 127.765 52.1748 128.946 52.9072 129.767C53.6396 130.587 54.543 130.997 55.6172 130.997C56.6914 130.997 57.5898 130.587 58.3125 129.767C59.0449 128.946 59.4111 127.755 59.4111 126.192C59.4111 124.669 59.0449 123.497 58.3125 122.677C57.5898 121.856 56.6914 121.446 55.6172 121.446C54.543 121.446 53.6396 121.856 52.9072 122.677C52.1748 123.497 51.8086 124.679 51.8086 126.222ZM70.8223 134H66.7061V118.443H70.5293V120.655C71.1836 119.61 71.7695 118.922 72.2871 118.59C72.8145 118.258 73.4102 118.092 74.0742 118.092C75.0117 118.092 75.915 118.351 76.7842 118.868L75.5098 122.457C74.8164 122.008 74.1719 121.783 73.5762 121.783C73 121.783 72.5117 121.944 72.1113 122.267C71.7109 122.579 71.3936 123.15 71.1592 123.98C70.9346 124.811 70.8223 126.549 70.8223 129.195V134ZM78.5713 116.334V112.525H82.6875V116.334H78.5713ZM78.5713 134V118.443H82.6875V134H78.5713ZM94.0547 118.443V121.725H91.2422V127.994C91.2422 129.264 91.2666 130.006 91.3154 130.221C91.374 130.426 91.4961 130.597 91.6816 130.733C91.877 130.87 92.1113 130.938 92.3848 130.938C92.7656 130.938 93.3174 130.807 94.04 130.543L94.3916 133.736C93.4346 134.146 92.3506 134.352 91.1396 134.352C90.3975 134.352 89.7285 134.229 89.1328 133.985C88.5371 133.731 88.0977 133.409 87.8145 133.019C87.541 132.618 87.3506 132.081 87.2432 131.407C87.1553 130.929 87.1113 129.962 87.1113 128.507V121.725H85.2217V118.443H87.1113V115.353L91.2422 112.95V118.443H94.0547ZM105.92 129.049L110.021 129.737C109.494 131.241 108.659 132.389 107.517 133.18C106.384 133.961 104.963 134.352 103.254 134.352C100.549 134.352 98.5469 133.468 97.248 131.7C96.2227 130.284 95.71 128.497 95.71 126.339C95.71 123.761 96.3838 121.744 97.7314 120.289C99.0791 118.824 100.783 118.092 102.844 118.092C105.158 118.092 106.984 118.858 108.322 120.392C109.66 121.915 110.3 124.254 110.241 127.408H99.9287C99.958 128.629 100.29 129.581 100.925 130.265C101.56 130.938 102.351 131.275 103.298 131.275C103.942 131.275 104.484 131.1 104.924 130.748C105.363 130.396 105.695 129.83 105.92 129.049ZM106.154 124.889C106.125 123.697 105.817 122.794 105.231 122.179C104.646 121.554 103.933 121.241 103.093 121.241C102.194 121.241 101.452 121.568 100.866 122.223C100.28 122.877 99.9922 123.766 100.002 124.889H106.154ZM112.16 129.562L116.291 128.932C116.467 129.732 116.823 130.343 117.36 130.763C117.897 131.173 118.649 131.378 119.616 131.378C120.681 131.378 121.481 131.183 122.019 130.792C122.38 130.519 122.561 130.152 122.561 129.693C122.561 129.381 122.463 129.122 122.268 128.917C122.062 128.722 121.604 128.541 120.891 128.375C117.57 127.643 115.466 126.974 114.577 126.368C113.347 125.528 112.731 124.361 112.731 122.867C112.731 121.52 113.264 120.387 114.328 119.469C115.393 118.551 117.043 118.092 119.279 118.092C121.408 118.092 122.99 118.438 124.025 119.132C125.061 119.825 125.773 120.851 126.164 122.208L122.282 122.926C122.116 122.32 121.799 121.856 121.33 121.534C120.871 121.212 120.212 121.051 119.353 121.051C118.269 121.051 117.492 121.202 117.023 121.505C116.711 121.72 116.555 121.998 116.555 122.34C116.555 122.633 116.691 122.882 116.965 123.087C117.336 123.36 118.615 123.746 120.803 124.244C123 124.742 124.533 125.353 125.402 126.075C126.262 126.808 126.691 127.828 126.691 129.137C126.691 130.562 126.096 131.788 124.904 132.813C123.713 133.839 121.95 134.352 119.616 134.352C117.497 134.352 115.817 133.922 114.577 133.062C113.347 132.203 112.541 131.036 112.16 129.562Z" fill="#FFC700"/>
<path d="M66.5 93.1622L36.4699 111.265C35.6088 111.804 34.6939 112.047 33.7252 111.993C32.7565 111.939 31.8954 111.642 31.142 111.104C30.3886 110.565 29.8235 109.864 29.4468 109.002C29.07 108.14 28.9893 107.171 29.2046 106.093L37.1157 71.8263L10.6376 48.7125C9.77651 47.9582 9.26524 47.1231 9.10379 46.2072C8.94234 45.2913 8.96925 44.4023 9.18452 43.5402C9.39979 42.6782 9.88414 41.9508 10.6376 41.3581C11.391 40.7655 12.3059 40.4153 13.3823 40.3075L48.4174 37.2364L61.9793 4.90943C62.4099 3.93962 63.0557 3.21226 63.9168 2.72736C64.7778 2.24245 65.6389 2 66.5 2C67.3611 2 68.2222 2.24245 69.0832 2.72736C69.9443 3.21226 70.5901 3.93962 71.0207 4.90943L84.5826 37.2364L119.618 40.3075C120.694 40.4153 121.609 40.7655 122.362 41.3581C123.116 41.9508 123.6 42.6782 123.815 43.5402C124.031 44.4023 124.058 45.2913 123.896 46.2072C123.735 47.1231 123.223 47.9582 122.362 48.7125L95.8843 71.8263L103.795 106.093C104.011 107.171 103.93 108.14 103.553 109.002C103.177 109.864 102.611 110.565 101.858 111.104C101.105 111.642 100.243 111.939 99.2748 111.993C98.3061 112.047 97.3912 111.804 96.5301 111.265L66.5 93.1622Z" fill="#FFC700"/>
</svg>
